<?xml version="1.0" encoding="utf-8"?>
<!-- Generated by IcoMoon.io -->
<!DOCTYPE svg PUBLIC "-//W3C//DTD SVG 1.1//EN" "http://www.w3.org/Graphics/SVG/1.1/DTD/svg11.dtd">
<svg version="1.1" xmlns="http://www.w3.org/2000/svg" xmlns:xlink="http://www.w3.org/1999/xlink" width="17" height="20" viewBox="0 0 17 20">
<path d="M13.069 9.074l-4.71 4.71q-0.212 0.212-0.502 0.212t-0.502-0.212l-3.281-3.281q-0.212-0.212-0.212-0.502t0.212-0.502l1.138-1.138q0.212-0.212 0.502-0.212t0.502 0.212l1.641 1.641 3.069-3.069q0.212-0.212 0.502-0.212t0.502 0.212l1.138 1.138q0.212 0.212 0.212 0.502t-0.212 0.502zM14.643 10q0-1.652-0.815-3.047t-2.21-2.21-3.047-0.815-3.047 0.815-2.21 2.21-0.815 3.047 0.815 3.047 2.21 2.21 3.047 0.815 3.047-0.815 2.21-2.21 0.815-3.047zM17.143 10q0 2.333-1.15 4.302t-3.119 3.119-4.302 1.15-4.302-1.15-3.119-3.119-1.15-4.302 1.15-4.302 3.119-3.119 4.302-1.15 4.302 1.15 3.119 3.119 1.15 4.302z"></path>
</svg>
