<?xml version="1.0" encoding="utf-8"?>
<!-- Generated by IcoMoon.io -->
<!DOCTYPE svg PUBLIC "-//W3C//DTD SVG 1.1//EN" "http://www.w3.org/Graphics/SVG/1.1/DTD/svg11.dtd">
<svg version="1.1" xmlns="http://www.w3.org/2000/svg" xmlns:xlink="http://www.w3.org/1999/xlink" width="20" height="20" viewBox="0 0 20 20">
<path d="M18.571 6.652q0-0.904-0.24-1.596t-0.614-1.099-0.91-0.664-1.049-0.346-1.094-0.089-1.25 0.285-1.233 0.714-0.965 0.804-0.67 0.686q-0.201 0.246-0.547 0.246t-0.547-0.246q-0.268-0.313-0.67-0.686t-0.965-0.804-1.233-0.714-1.25-0.285-1.094 0.089-1.049 0.346-0.91 0.664-0.614 1.099-0.24 1.596q0 1.875 2.087 3.962l6.484 6.25 6.473-6.239q2.098-2.098 2.098-3.973zM20 6.652q0 2.467-2.556 5.022l-6.953 6.696q-0.201 0.201-0.491 0.201t-0.491-0.201l-6.964-6.719q-0.112-0.089-0.307-0.29t-0.619-0.731-0.759-1.088-0.597-1.35-0.262-1.54q0-2.455 1.417-3.839t3.917-1.384q0.692 0 1.412 0.24t1.339 0.647 1.066 0.765 0.848 0.759q0.402-0.402 0.848-0.759t1.066-0.765 1.339-0.647 1.412-0.24q2.5 0 3.917 1.384t1.417 3.839z"></path>
</svg>
