<?xml version="1.0" encoding="utf-8"?>
<!-- Generated by IcoMoon.io -->
<!DOCTYPE svg PUBLIC "-//W3C//DTD SVG 1.1//EN" "http://www.w3.org/Graphics/SVG/1.1/DTD/svg11.dtd">
<svg version="1.1" xmlns="http://www.w3.org/2000/svg" xmlns:xlink="http://www.w3.org/1999/xlink" width="16" height="20" viewBox="0 0 16 20">
<path d="M5.714 8.214v6.429q0 0.156-0.1 0.257t-0.257 0.1h-0.714q-0.156 0-0.257-0.1t-0.1-0.257v-6.429q0-0.156 0.1-0.257t0.257-0.1h0.714q0.156 0 0.257 0.1t0.1 0.257zM8.571 8.214v6.429q0 0.156-0.1 0.257t-0.257 0.1h-0.714q-0.156 0-0.257-0.1t-0.1-0.257v-6.429q0-0.156 0.1-0.257t0.257-0.1h0.714q0.156 0 0.257 0.1t0.1 0.257zM11.429 8.214v6.429q0 0.156-0.1 0.257t-0.257 0.1h-0.714q-0.156 0-0.257-0.1t-0.1-0.257v-6.429q0-0.156 0.1-0.257t0.257-0.1h0.714q0.156 0 0.257 0.1t0.1 0.257zM12.857 16.295v-10.58h-10v10.58q0 0.246 0.078 0.452t0.162 0.301 0.117 0.095h9.286q0.033 0 0.117-0.095t0.162-0.301 0.078-0.452zM5.357 4.286h5l-0.536-1.306q-0.078-0.1-0.19-0.123h-3.538q-0.112 0.022-0.19 0.123zM15.714 4.643v0.714q0 0.156-0.1 0.257t-0.257 0.1h-1.071v10.58q0 0.926-0.525 1.602t-1.261 0.675h-9.286q-0.737 0-1.261-0.653t-0.525-1.579v-10.625h-1.071q-0.156 0-0.257-0.1t-0.1-0.257v-0.714q0-0.156 0.1-0.257t0.257-0.1h3.449l0.781-1.864q0.167-0.413 0.603-0.703t0.882-0.29h3.571q0.446 0 0.882 0.29t0.603 0.703l0.781 1.864h3.449q0.156 0 0.257 0.1t0.1 0.257z"></path>
</svg>
